<svg width="571" height="897" viewBox="0 0 571 897" fill="none" xmlns="http://www.w3.org/2000/svg">
<path d="M570.973 752.706V874.707C570.973 886.506 561.418 896.068 549.628 896.068H385.116C373.326 896.068 363.771 886.506 363.771 874.707V774.068C363.771 762.268 354.217 752.706 342.427 752.706H-21.6556C-33.4454 752.706 -43 743.144 -43 731.345V593.709C-43 573.657 -38.2748 553.896 -29.2182 536.011L236.307 11.7063C239.944 4.52027 247.309 0 255.347 0H427.48C443.404 0 453.723 16.8177 446.52 31.0276L192.692 532.221C185.488 546.431 195.807 563.249 211.731 563.249H549.605C561.395 563.249 570.95 572.811 570.95 584.61V752.695L570.973 752.706Z" fill="#EFEFEA"/>
</svg>
