<svg width="880" height="924" viewBox="0 0 880 924" fill="none" xmlns="http://www.w3.org/2000/svg">
<path d="M788.635 789.897C699.032 878.655 589.988 923.034 461.517 923.034C333.045 923.034 223.979 878.655 134.399 789.897C44.7957 701.14 0 591.689 0 461.511C0 331.333 44.7957 221.882 134.399 133.125C223.979 44.3671 333.022 0 461.517 0C590.012 0 699.032 44.3787 788.635 133.125C878.215 221.882 923.034 331.356 923.034 461.511C923.034 591.666 878.226 701.151 788.635 789.897ZM277.045 651.704C326.492 700.734 387.99 725.243 461.528 725.243C535.067 725.243 596.554 700.734 646.001 651.704C695.448 602.697 720.177 539.296 720.177 461.523C720.177 383.75 695.459 320.371 646.001 271.341C596.554 222.334 535.055 197.802 461.528 197.802C388.002 197.802 326.492 222.334 277.045 271.341C227.598 320.371 202.868 383.773 202.868 461.523C202.868 539.272 227.586 602.697 277.045 651.704Z" fill="#EFEFEA"/>
</svg>
