<svg width="55" height="34" viewBox="0 0 55 34" fill="none" xmlns="http://www.w3.org/2000/svg">
<path d="M54.5317 0.486922C54.5317 0.074685 54.2678 -0.0521572 53.9457 0.0184708C53.6235 0.0890989 50.6247 0.638268 47.935 2.4746C45.5792 4.08463 43.5688 6.98326 42.8107 8.08593C42.6372 8.33961 42.6999 8.6841 42.9551 8.85995L44.0645 9.62965C44.3327 9.81559 44.7015 9.76226 44.9042 9.50714C45.3605 8.93346 46.2089 7.95908 47.1172 7.38109C47.3606 7.22686 47.6813 7.40271 47.6813 7.6881V29.9215C47.6813 30.3799 48.0575 30.7518 48.5211 30.7518H53.6905C54.1541 30.7518 54.5302 30.3799 54.5302 29.9215V0.486922H54.5317Z" fill="#000001"/>
<path d="M39.7099 6.38797L31.0737 30.4938C31.0183 30.6494 30.8682 30.7547 30.7005 30.7547L23.2145 30.7619C23.0571 30.7619 22.9142 30.6696 22.8515 30.5269L13.8086 9.91505C13.7459 9.77235 13.603 9.6801 13.4456 9.6801H9.64502C9.42635 9.6801 9.24849 9.85595 9.24849 10.0722V14.9988C9.24849 21.9896 9.85787 26.4492 12.947 29.2369C14.1468 30.3194 15.4166 30.9334 16.0274 31.19C16.2301 31.275 16.3219 31.5071 16.233 31.706L15.5245 33.3016C15.4385 33.4962 15.2096 33.587 15.0098 33.5063L14.0783 33.1243C12.0227 32.3733 2.39085 28.2221 2.39085 17.6726V10.0722C2.39085 9.85595 2.21299 9.6801 1.99432 9.6801H0.395073C0.176398 9.6801 0 9.50425 0 9.28949V6.25969C0 6.04348 0.177856 5.86763 0.395073 5.86763H2.03368C2.1955 5.86763 2.33982 5.76961 2.40105 5.62259C2.65326 5.00712 3.48276 3.45907 5.11699 2.07966C6.57191 0.851594 7.98309 0.277921 8.72076 0.0645953C8.98608 -0.0117983 9.24849 0.12225 9.24849 0.49557V5.45539C9.24995 5.68313 9.48466 5.86907 9.715 5.86763H19.2915C19.4577 5.86763 19.6093 5.92961 19.6764 6.08095L27.5487 23.7711C27.7047 24.1228 28.2164 24.1041 28.3461 23.7423L34.6585 6.12852C34.7139 5.97285 34.8641 5.86763 35.0317 5.86763H39.3367C39.6093 5.86763 39.8003 6.13429 39.7099 6.38941" fill="#000001"/>
</svg>
